<svg width="201" height="114" viewBox="0 0 201 114" fill="none" xmlns="http://www.w3.org/2000/svg">
<path d="M59.4265 74.1678C59.4265 74.1678 56.9483 75.6054 61.1901 76.0926C66.3294 76.6773 68.9555 76.5931 74.6181 75.5248C74.6181 75.5248 76.1074 76.456 78.1862 77.2632C65.4909 82.6911 49.4548 76.9504 59.4265 74.169V74.1678ZM57.8746 67.0833C57.8746 67.0833 55.1077 69.1357 59.3399 69.5735C64.8292 70.139 69.1649 70.1847 76.6656 68.7314C76.6656 68.7314 77.7038 69.7805 79.3363 70.3555C63.9859 74.8331 46.8912 70.7092 57.8746 67.0713" fill="#5382A1"/>
<path d="M70.955 55.0674C74.0828 58.6608 70.1333 61.8945 70.1333 61.8945C70.1333 61.8945 78.0756 57.8043 74.4281 52.6795C71.0211 47.9035 68.4082 45.5288 82.552 37.3447C82.552 37.3447 60.3517 42.8762 70.955 55.0674Z" fill="#E76F00"/>
<path d="M87.7429 79.4082C87.7429 79.4082 89.5762 80.9156 85.7218 82.0825C78.3955 84.296 55.2232 84.9661 48.7859 82.1703C46.4725 81.1658 50.8117 79.7715 52.176 79.4792C53.5991 79.1712 54.4135 79.2289 54.4135 79.2289C51.8391 77.4208 37.7808 82.7802 47.2725 84.3153C73.1564 88.5017 94.4568 82.4289 87.7417 79.407L87.7429 79.4082ZM60.6175 59.7438C60.6175 59.7438 48.8316 62.5372 56.443 63.5513C59.6575 63.9808 66.0647 63.8834 72.034 63.3829C76.9122 62.9739 81.8096 62.0993 81.8096 62.0993C81.8096 62.0993 80.0893 62.8332 78.8454 63.6813C66.8755 66.8211 43.7537 65.3607 50.4111 62.1486C56.0412 59.4335 60.6175 59.7426 60.6175 59.7426V59.7438ZM81.7603 71.5345C93.9275 65.2259 88.3023 59.164 84.3757 59.9808C83.4132 60.1805 82.9838 60.3417 82.9838 60.3417C82.9838 60.3417 83.3411 59.7835 84.0232 59.5417C91.791 56.8169 97.7651 67.5778 81.5161 71.8401C81.5161 71.8401 81.705 71.6716 81.7603 71.5225" fill="#5382A1"/>
<path d="M74.4257 24.1299C74.4257 24.1299 81.1626 30.8667 68.0354 41.1969C57.5066 49.4929 65.6342 54.2219 68.0306 59.627C61.8856 54.0932 57.3755 49.2246 60.4011 44.6929C64.8402 38.0403 77.1445 34.8138 74.4257 24.1311" fill="#E76F00"/>
<path d="M61.8139 88.6294C73.4927 89.3752 91.4259 88.2155 91.8505 82.7021C91.8505 82.7021 91.0325 84.7918 82.1988 86.4519C72.2307 88.3238 59.9372 88.1048 52.6445 86.9055C52.6445 86.9055 54.1363 88.1373 61.8114 88.6294" fill="#5382A1"/>
<path d="M125.999 67.0822C124.895 68.0289 123.73 68.5619 122.684 68.5619C121.193 68.5619 120.387 67.6764 120.387 66.2545C120.387 64.717 121.25 63.5934 124.717 63.5934H126V67.0822H125.999ZM129.042 70.4819V59.9579C129.042 57.2692 127.493 55.5068 123.757 55.5068C121.576 55.5068 119.667 56.0397 118.115 56.7194L118.563 58.5841C119.785 58.139 121.366 57.7264 122.92 57.7264C125.074 57.7264 125.997 58.5841 125.997 60.3561V61.6867H124.923C119.695 61.6867 117.337 63.6957 117.337 66.7104C117.337 69.3125 118.891 70.791 121.817 70.791C123.697 70.791 125.101 70.0211 126.415 68.8975L126.653 70.4951H129.041L129.042 70.4819ZM139.203 70.4819H135.406L130.835 55.7619H134.15L136.986 64.8061L137.616 67.5249C139.05 63.591 140.065 59.6019 140.573 55.7594H143.797C142.931 60.6076 141.379 65.9273 139.199 70.4794L139.203 70.4819ZM153.769 67.0822C152.662 68.0289 151.495 68.5619 150.449 68.5619C148.957 68.5619 148.151 67.6764 148.151 66.2545C148.151 64.717 149.017 63.5934 152.482 63.5934H153.766V67.0822H153.769ZM156.812 70.4819V59.9579C156.812 57.2692 155.261 55.5068 151.529 55.5068C149.347 55.5068 147.436 56.0397 145.884 56.7194L146.332 58.5841C147.554 58.139 149.14 57.7264 150.692 57.7264C152.841 57.7264 153.769 58.5841 153.769 60.3561V61.6867H152.693C147.464 61.6867 145.107 63.6957 145.107 66.7104C145.107 69.3125 146.659 70.791 149.586 70.791C151.467 70.791 152.87 70.0211 154.186 68.8975L154.427 70.4951H156.814L156.812 70.4819ZM114 72.9817C113.144 74.2376 111.731 75.2277 110.197 75.7895L108.693 74.0391C109.86 73.4461 110.864 72.4752 111.328 71.597C111.731 70.8031 111.897 69.7925 111.897 67.3336V50.5264H115.133V67.1014C115.133 70.3712 114.868 71.6933 114.002 72.9817H114Z" fill="#E76F00"/>
</svg>
