<svg width="201" height="114" viewBox="0 0 201 114" fill="none" xmlns="http://www.w3.org/2000/svg">
<path fill-rule="evenodd" clip-rule="evenodd" d="M84.8172 56.931C84.8172 59.3106 84.247 61.2859 83.0993 62.8558C81.8193 64.6339 80.0461 65.5506 77.7784 65.5987C76.0702 65.6516 74.309 65.1175 72.4852 64.0312V74.1918L69.5547 73.1692V50.6152C70.0359 50.0378 70.6542 49.5325 71.4049 49.1235C73.1493 48.1298 75.269 47.6197 77.764 47.5933L77.8061 47.6342C80.0858 47.6053 81.8434 48.5208 83.0777 50.377C84.229 52.0793 84.8064 54.2603 84.8064 56.9286L84.8172 56.931ZM81.4356 56.7337C81.4356 52.0504 80.0702 49.6456 77.3381 49.5157C76.2506 49.4652 75.1896 49.636 74.1574 50.027C73.3333 50.3157 72.7787 50.6008 72.4732 50.8895V62.0679C74.2212 63.1506 75.773 63.6378 77.1264 63.5596C79.9896 63.3743 81.4236 61.1018 81.4236 56.7349L81.4356 56.7337ZM102.717 63.5981C102.717 66.7897 102.39 69.0116 101.735 70.2146C101.081 71.4176 99.8272 72.4245 97.9818 73.1548C96.484 73.7322 94.8539 74.045 93.1264 74.0979L92.6416 72.2934C94.41 72.0588 95.6527 71.8122 96.3745 71.5873C97.7941 71.1061 98.7806 70.3843 99.3051 69.4303C99.7345 68.6435 99.9463 67.1421 99.9463 64.919V64.1731C97.9637 65.0581 95.816 65.5124 93.6449 65.5061C92.2013 65.5061 90.9285 65.0633 89.8314 64.1731C88.5995 63.2047 87.9848 61.9752 87.9848 60.4871V48.5653L90.9153 47.5837V59.5873C90.9153 60.8697 91.3387 61.8573 92.1857 62.5491C93.0326 63.2408 94.1285 63.574 95.4723 63.5476C96.816 63.5211 98.256 63.011 99.7851 62.0173V48.0288H102.716V63.5993L102.717 63.5981ZM114.16 65.4411L113.194 65.482C111.536 65.482 110.244 65.097 109.32 64.3223C108.396 63.5476 107.939 62.4793 107.939 61.1151V49.8309H105.93V48.0288H107.939V43.2408L110.867 42.2218V48.0288H114.16V49.8309H110.867V61.0381C110.867 62.1136 111.162 62.8751 111.753 63.3202C112.258 63.6871 113.076 63.8976 114.161 63.9506V65.4423L114.16 65.4411ZM131.907 65.2077H128.976V54.1485C128.976 53.0237 128.707 52.0552 128.17 51.2456C127.896 50.8122 127.514 50.4578 127.061 50.2173C126.608 49.9768 126.101 49.8585 125.588 49.8742C124.245 49.8742 122.564 50.5671 120.536 51.9518V65.2089H117.605V38.7704L120.536 37.8682V49.8982C122.422 48.5629 124.467 47.8964 126.689 47.8964C128.253 47.8964 129.498 48.4077 130.461 49.4267C131.423 50.4456 131.907 51.7148 131.907 53.2318V65.1945V65.2077ZM150.695 56.303C150.695 58.8655 150.025 60.9948 148.686 62.6982C147.215 64.605 145.182 65.5614 142.587 65.5614C140.015 65.5614 138.011 64.605 136.565 62.6982C135.241 60.996 134.599 58.8643 134.599 56.303C134.599 53.897 135.321 51.87 136.725 50.2218C138.236 48.4739 140.204 47.5957 142.639 47.5957C145.073 47.5957 147.054 48.4739 148.581 50.2218C149.999 51.87 150.707 53.8958 150.707 56.303H150.695ZM147.498 56.2838C147.498 54.4841 147.137 52.9996 146.451 51.823C145.623 50.3794 144.338 49.6336 142.599 49.5566C139.387 49.737 137.782 51.9891 137.782 56.303C137.782 58.2808 138.116 59.9337 138.789 61.2594C139.648 62.9497 140.938 63.7833 142.657 63.7545C145.883 63.7304 147.495 61.2282 147.495 56.2958L147.498 56.2838ZM167.513 65.2077H164.583V53.5217C164.583 52.2393 164.188 51.2396 163.4 50.519C162.612 49.7984 161.559 49.4531 160.248 49.4808C158.856 49.5049 157.532 49.962 156.275 50.8137V65.2077H153.344V50.4588C155.031 49.2582 156.584 48.4739 158 48.1082C159.323 47.7665 160.516 47.5969 161.534 47.5969C162.23 47.5969 162.884 47.6618 163.5 47.7942C164.652 48.054 165.588 48.5364 166.309 49.245C166.696 49.6056 167.003 50.0433 167.211 50.5298C167.418 51.0162 167.522 51.5408 167.514 52.0697V65.2065L167.513 65.2077Z" fill="#646464"/>
<mask id="mask0_153_1923" style="mask-type:alpha" maskUnits="userSpaceOnUse" x="22" y="38" width="28" height="28">
<path d="M40.618 38.8765C39.1106 38.8837 37.6706 38.9968 36.4027 39.2278C32.6697 39.8726 31.9924 41.2223 31.9924 43.7102V46.9968H40.8141V48.0915H28.6806C26.1182 48.0915 23.8721 49.5977 23.1708 52.4633C22.763 54.1162 22.5512 55.4539 22.5488 56.8145V56.8602C22.5512 58.1896 22.7533 59.5429 23.1696 61.2272C23.7951 63.7799 25.2941 65.5989 27.8577 65.5989H30.8893V61.659C30.8893 58.8127 33.4084 56.302 36.3991 56.302H45.2099C47.664 56.302 49.6201 54.3291 49.6201 51.9195V43.7102C49.6201 41.3739 47.6039 39.6175 45.2099 39.2278C43.7351 38.9922 42.2438 38.8747 40.7503 38.8765H40.6132H40.618ZM34.1915 43.1688C34.1915 42.2593 34.9326 41.5207 35.8469 41.5207C36.7612 41.5207 37.5022 42.2593 37.5022 43.1688C37.4997 43.6055 37.3239 44.0233 37.0135 44.3305C36.7032 44.6378 36.2836 44.8092 35.8469 44.8073C34.9326 44.8073 34.1915 44.0735 34.1915 43.1688Z" fill="white"/>
</mask>
<g mask="url(#mask0_153_1923)">
<path fill-rule="evenodd" clip-rule="evenodd" d="M40.618 38.8765C39.1106 38.8837 37.6706 38.9968 36.4027 39.2278C32.6697 39.8726 31.9924 41.2223 31.9924 43.7102V46.9968H40.8141V48.0915H28.6806C26.1182 48.0915 23.8721 49.5977 23.1708 52.4633C22.763 54.1162 22.5512 55.4539 22.5488 56.8145V56.8602C22.5512 58.1896 22.7533 59.5429 23.1696 61.2272C23.7951 63.7799 25.2941 65.5989 27.8577 65.5989H30.8893V61.659C30.8893 58.8127 33.4084 56.302 36.3991 56.302H45.2099C47.664 56.302 49.6201 54.3291 49.6201 51.9195V43.7102C49.6201 41.3739 47.6039 39.6175 45.2099 39.2278C43.7351 38.9922 42.2438 38.8747 40.7503 38.8765H40.6132H40.618ZM34.1915 43.1688C34.1915 42.2593 34.9326 41.5207 35.8469 41.5207C36.7612 41.5207 37.5022 42.2593 37.5022 43.1688C37.4997 43.6055 37.3239 44.0233 37.0135 44.3305C36.7032 44.6378 36.2836 44.8092 35.8469 44.8073C34.9326 44.8073 34.1915 44.0735 34.1915 43.1688Z" fill="url(#paint0_linear_153_1923)"/>
</g>
<mask id="mask1_153_1923" style="mask-type:alpha" maskUnits="userSpaceOnUse" x="31" y="48" width="29" height="28">
<path d="M50.7235 48.0928V51.9231C50.7235 54.8922 48.149 57.3908 45.2137 57.3908H36.4005C33.9872 57.3908 31.9902 59.4119 31.9902 61.7734V69.9851C31.9902 72.3213 34.069 73.6964 36.4005 74.3665C39.1914 75.1689 41.8705 75.3144 45.2113 74.3665C47.432 73.7385 49.6215 72.4729 49.6215 69.9851V66.7081H40.8131V65.6254H54.0341C56.5965 65.6254 57.5529 63.8774 58.4444 61.2537C59.3659 58.5529 59.3262 55.9544 58.4444 52.4898C57.8116 49.9695 56.6014 48.0928 54.0341 48.0928H50.7235ZM44.1129 70.5253C44.1155 70.0886 44.2912 69.6707 44.6016 69.3635C44.912 69.0563 45.3316 68.8848 45.7683 68.8868C46.6826 68.8868 47.4236 69.6206 47.4236 70.5253C47.4236 71.4299 46.6826 72.1734 45.7683 72.1734C44.854 72.1734 44.1129 71.4335 44.1129 70.5253Z" fill="white"/>
</mask>
<g mask="url(#mask1_153_1923)">
<path fill-rule="evenodd" clip-rule="evenodd" d="M50.7235 48.0928V51.9231C50.7235 54.8922 48.149 57.3908 45.2137 57.3908H36.4005C33.9872 57.3908 31.9902 59.4119 31.9902 61.7734V69.9851C31.9902 72.3213 34.069 73.6964 36.4005 74.3665C39.1914 75.1689 41.8705 75.3144 45.2113 74.3665C47.432 73.7385 49.6215 72.4729 49.6215 69.9851V66.7081H40.8131V65.6254H54.0341C56.5965 65.6254 57.5529 63.8774 58.4444 61.2537C59.3659 58.5529 59.3262 55.9544 58.4444 52.4898C57.8116 49.9695 56.6014 48.0928 54.0341 48.0928H50.7235ZM44.1129 70.5253C44.1155 70.0886 44.2912 69.6707 44.6016 69.3635C44.912 69.0563 45.3316 68.8848 45.7683 68.8868C46.6826 68.8868 47.4236 69.6206 47.4236 70.5253C47.4236 71.4299 46.6826 72.1734 45.7683 72.1734C44.854 72.1734 44.1129 71.4335 44.1129 70.5253Z" fill="url(#paint1_linear_153_1923)"/>
</g>
<mask id="mask2_153_1923" style="mask-type:alpha" maskUnits="userSpaceOnUse" x="172" y="41" width="7" height="5">
<path d="M172 41.9463H178.758V45.4711H172V41.9463Z" fill="white"/>
</mask>
<g mask="url(#mask2_153_1923)">
<path fill-rule="evenodd" clip-rule="evenodd" d="M175.405 45.4723H175.844V42.5947L176.798 45.4723H177.286L178.277 42.6043V45.4723H178.756V41.9463H178.122L177.038 44.967L176.112 41.9463H175.402V45.4711L175.405 45.4723ZM173.217 45.4723H173.731V42.3228H174.949V41.9463H172V42.3228H173.217V45.4747V45.4723Z" fill="#646464"/>
</g>
<defs>
<linearGradient id="paint0_linear_153_1923" x1="21.652" y1="40.2211" x2="41.6089" y2="57.1692" gradientUnits="userSpaceOnUse">
<stop stop-color="#599ED4"/>
<stop offset="1" stop-color="#2F6997"/>
</linearGradient>
<linearGradient id="paint1_linear_153_1923" x1="49.6271" y1="67.3231" x2="42.4922" y2="57.3592" gradientUnits="userSpaceOnUse">
<stop stop-color="#FFD43B"/>
<stop offset="1" stop-color="#FFE872"/>
</linearGradient>
</defs>
</svg>
